#N canvas 0 0 450 300 10;
#X obj 60 227 dac~;
#X obj 95 129 *~ 0.3;
#X obj 153 101 loadbang;
#X obj 60 180 *~;
#X obj 150 238 send cursor;
#X obj 150 209 snapshot~;
#X obj 26 129 *~ 0.6;
#X obj 95 100 osc~ 100;
#X obj 27 98 osc~ 220;
#X obj 96 45 *~ 100;
#X obj 96 72 +~ 150;
#X obj 95 21 osc~ 0.1;
#X obj 152 128 metro 1;
#X connect 1 0 3 1;
#X connect 2 0 12 0;
#X connect 3 0 0 0;
#X connect 3 0 0 1;
#X connect 3 0 5 0;
#X connect 5 0 4 0;
#X connect 6 0 3 0;
#X connect 7 0 1 0;
#X connect 8 0 6 0;
#X connect 9 0 10 0;
#X connect 10 0 7 0;
#X connect 11 0 9 0;
#X connect 12 0 5 0;
